<svg width="752.413" height="322.227" xmlns="http://www.w3.org/2000/svg">
    <path d="M1560.49 63.602h-41v289.16h39.28c55.79 0 70.58-72.864 70.58-142.864 0-70.019-15.37-146.296-68.86-146.296zm0 343.796h-96.77V8.949h96.77c84.24 0 126.36 82.54 126.36 200.949 0 118.403-38.15 197.5-126.36 197.5zm239.06-120.089v20.48h-54.66V8.949h54.66v225.992c12.52 18.207 27.33 23.34 42.69 23.34 17.07 0 27.32-2.851 38.13-9.121l13.1 54.649c-9.1 5.703-22.2 10.25-40.99 10.25-22.19 0-40.99-11.379-52.93-26.75zm170.18-100.18c4.55 51.211 22.2 75.68 50.08 75.68 30.75 0 48.97-31.27 50.67-75.68zm51.23 126.93c-63.19 0-106.44-52.36-106.44-157.11 0-93.918 38.69-154.25 109.86-154.25 38.14 0 68.31 17.09 88.8 39.84l-33.58 34.73c-17.08-15.937-29.04-22.21-54.08-22.21-31.88 0-52.94 25.632-56.35 84.82h156.53c.57 5.691.57 14.223.57 19.34 0 104.179-45.55 154.84-105.31 154.84zm253.25-128.649c-40.41 23.34-48.97 32.461-48.97 50.672 0 14.797 9.13 26.168 29.62 26.168 18.77 0 40.97-8.539 60.34-22.191l22.19 46.089c-22.19 17.09-51.24 27.911-81.4 27.911-54.09 0-85.38-31.297-85.38-83.098 0-47.25 25.03-66.602 62.04-88.242 41.56-23.91 57.49-34.731 57.49-55.778 0-19.359-14.81-32.453-39.27-32.453-19.92 0-42.13 8.543-69.44 25.633l-21.07-45.55c26.18-19.352 59.77-31.872 91.64-31.872 58.06 0 92.79 31.313 92.79 88.242 0 48.938-25.62 68.278-70.58 94.469zm256.64-104.18c-9.68-15.94-26.18-27.3-44.39-27.3-31.3 0-46.11 32.441-46.11 110.429 0 70.582 14.81 98.45 43.27 98.45 17.06 0 35.29-8.508 47.23-26.727zm0 210.649c-14.79 15.351-30.72 22.18-51.79 22.18-59.2 0-93.92-52.93-93.92-152.547 0-118.973 35.86-158.813 89.94-158.813 26.75 0 41.55 10.82 55.77 26.172V8.95h54.66V423.91l-54.66-28.461zm164.51-104.75c4.56 51.211 22.22 75.68 50.09 75.68 30.74 0 48.96-31.27 50.66-75.68zm51.23 126.93c-63.17 0-106.43-52.36-106.43-157.11 0-93.918 38.7-154.25 109.85-154.25 38.13 0 68.3 17.09 88.79 39.84l-33.58 34.73c-17.08-15.937-29.03-22.21-54.06-22.21-31.88 0-52.96 25.632-56.37 84.82h156.55c.56 5.691.56 14.223.56 19.34 0 104.179-45.53 154.84-105.31 154.84zm272.66 0c-25.61 0-46.12-11.379-58.05-26.75v20.48h-54.65V8.949h54.65v225.992c10.8 17.641 27.31 27.309 44.38 27.309 27.34 0 36.99-19.918 36.99-69.441V8.949h54.65v192.973c0 75.129-20.49 112.137-77.97 112.137" style="fill:#888;fill-opacity:1;fill-rule:nonzero;stroke:none" transform="matrix(.13333 0 0 -.13333 0 322.227)"/>
    <path d="M125.234 729.102c-44.402 28.457-58.066 44.976-58.066 74.57 0 25.058 14.797 42.129 41.543 42.129 25.059 0 38.144-9.121 57.488-34.719l40.989 36.418c-23.907 34.73-50.657 54.078-96.758 54.078-62.063 0-100.754-41.558-100.754-99.609 0-62.629 35.277-91.66 80.254-121.25 53.508-35.309 66.601-52.938 66.601-83.688 0-32.422-17.652-50.64-47.82-50.64-24.465 0-43.262 10.25-64.883 44.39L0 555.488c22.766-38.707 55.207-64.898 105.305-64.898 70.574 0 108.718 45.539 108.718 109.289 0 66.609-39.265 97.351-88.789 129.223zm204.911-157.114v172.481h57.492v51.25h-57.492V911.82l-54.657-29.031v-87.07h-32.429v-51.25h32.429v-177.59c0-48.399 17.649-76.289 57.5-76.289 20.496 0 35.852 5.129 48.946 13.672l6.257 50.636c-7.957-6.828-21.043-12.519-35.281-12.519-14.805 0-22.765 8.582-22.765 29.609zm246.527-2.277c-10.82-17.641-27.324-27.332-44.399-27.332-27.324 0-37 19.953-37 69.461v183.879h-54.66v-193c0-75.117 20.508-112.129 78-112.129 25.606 0 46.094 11.379 58.059 26.769v-20.5h54.637v298.86h-54.637Zm255.008-.551c-9.676-15.941-26.192-27.32-44.395-27.32-31.308 0-46.113 32.441-46.113 110.41 0 70.578 14.805 98.488 43.254 98.488 17.078 0 35.301-8.547 47.254-26.769zm0 210.61c-14.793 15.371-30.735 22.199-51.797 22.199-59.192 0-93.926-52.938-93.926-152.547 0-118.973 35.859-158.832 89.941-158.832 26.747 0 41.551 10.82 55.782 26.191v-19.922h54.648V911.82l-54.648-28.461Zm164.504-104.731c4.556 51.211 22.206 75.699 50.086 75.699 30.75 0 48.97-31.316 50.66-75.699zm51.226 126.93c-63.172 0-106.433-52.379-106.433-157.11 0-93.898 38.703-154.269 109.853-154.269 38.13 0 68.3 17.09 88.79 39.859l-33.58 34.711c-17.08-15.941-29.02-22.191-54.08-22.191-31.87 0-52.937 25.613-56.355 84.812h156.555c.55 5.699.55 14.207.55 19.367 0 104.161-45.52 154.821-105.3 154.821zm272.66 0c-25.62 0-46.11-11.399-58.06-26.75v20.5h-54.65v-298.86h54.65v225.969c10.8 17.66 27.32 27.332 44.4 27.332 27.32 0 37-19.922 37-69.441v-183.86h54.64v192.973c0 75.129-20.49 112.137-77.98 112.137zm207.76-229.981v172.481h57.5v51.25h-57.5V911.82l-54.63-29.031v-87.07h-32.46v-51.25h32.46v-177.59c0-48.399 17.63-76.289 57.47-76.289 20.5 0 35.87 5.129 48.97 13.672l6.26 50.636c-7.97-6.828-21.07-12.519-35.29-12.519-14.81 0-22.78 8.582-22.78 29.609zm152.58 103.051c4.56 51.211 22.21 75.699 50.09 75.699 30.75 0 48.97-31.316 50.66-75.699zm51.23 126.93c-63.17 0-106.43-52.379-106.43-157.11 0-93.898 38.7-154.269 109.85-154.269 38.13 0 68.3 17.09 88.79 39.859l-33.59 34.711c-17.07-15.941-29.01-22.191-54.06-22.191-31.88 0-52.95 25.613-56.37 84.812h156.56c.55 5.699.55 14.207.55 19.367 0 104.161-45.52 154.821-105.3 154.821zm272.66 0c-25.62 0-46.12-11.399-58.06-26.75v20.5h-54.65v-298.86h54.65v225.969c10.8 17.66 27.32 27.332 44.39 27.332 27.33 0 37-19.922 37-69.441v-183.86h54.65v192.973c0 75.129-20.49 112.137-77.98 112.137zm354.66-133.77c-2.87-17.09-10.83-72.871-12.54-87.09-2.28 14.789-13.09 71.141-17.08 88.211l-28.45 126.399h-49.52l-27.33-126.399c-3.99-17.07-14.24-73.422-16.5-88.211-1.72 14.219-10.25 69.461-13.1 87.09l-22.2 127.52h-52.37l60.34-298.86h51.24l30.16 142.301c3.98 19.918 11.38 60.899 13.66 75.16 2.27-14.261 9.68-54.648 13.67-73.441l30.73-144.02h51.23l61.48 298.86H2380Zm157.67 6.84c4.55 51.211 22.21 75.699 50.09 75.699 30.74 0 48.96-31.316 50.66-75.699zm51.23 126.93c-63.18 0-106.43-52.379-106.43-157.11 0-93.898 38.69-154.269 109.85-154.269 38.14 0 68.31 17.09 88.79 39.859l-33.59 34.711c-17.06-15.941-29.02-22.191-54.06-22.191-31.88 0-52.95 25.613-56.37 84.812h156.55c.57 5.699.57 14.207.57 19.367 0 104.161-45.54 154.821-105.31 154.821zm214.6-26.75v20.5h-54.65v-298.86h54.65v225.969c12.52 18.231 27.33 23.344 42.7 23.344 17.06 0 27.31-2.852 38.13-9.102l13.09 54.649c-9.12 5.679-22.21 10.25-40.98 10.25-22.2 0-41-11.399-52.94-26.75zm257.3-83.129 64.29 103.629h-62.03l-44.96-81.399c-7.4-13.672-18.81-34.16-24.49-46.121.58 14.789 1.15 45.531 1.15 64.321v179.3l-54.65-28.461v-386.5h54.65v92.2l29.59 47.25 49.51-139.45h59.79l-72.85 195.231" style="fill:#000;fill-opacity:1;fill-rule:nonzero;stroke:none" transform="matrix(.13333 0 0 -.13333 0 322.227)"/>
    <path d="M4625.69 723.461c27.76 14.668 155.26 186.398 67.7 344.879-64.86 117.33-356.51 245.82-623.48 384.19-252.24 130.71-447.5 284.99-486.93 525.54-26.7 162.83 125 277.27 125 277.27-24.75-20.48-43.05-59.27-36.54-148.09 36.48-497.84 1223.82-592.83 1225.37-1002.05.84-216.86-271.12-381.739-271.12-381.739" style="fill:#888;fill-opacity:1;fill-rule:nonzero;stroke:none" transform="matrix(.13333 0 0 -.13333 0 322.227)"/>
    <path d="M3767.45 893.5c-33.87-38.52-29.78-31.039-56.97-73.852-1.21-1.91-3.42-5.117 1.4-9.687 31.47-29.672 61.55-41.461 58.95-45.582-2.62-4.117-26.5 5.453-68.81 36.461-.8.59-3.55-.121-4.31-1.328-1.55 4.547-24.2-8.41 58.2-52.153 3.94-2.078 23.1-12.16 43.44-19.679 20.52 44.179 31.99 73.199 42.79 151.351-14.24-3.769-67.79-5.019-74.69 14.469zm-173.63 272.28c-86.82 30.35-196.35-26.83-196.35-26.83s13.26-26.06 32.42-59.77a173.554 173.554 0 0 0 64.32 18.56c85.08 7.44 159.32-46.61 165.82-120.752 3.93-45.129-18.26-87.258-55.39-115 23.65-21.789 41.03-36.66 41.03-36.66s63.58 7.801 85.8 115.844c23.87 116.158-58.41 196.918-137.65 224.608zm49.59-217.831c-.06 15.723 2.44 61.761-34.2 94.751-40.98 36.85-96.25 49.94-145.76 35.74-33.03-9.47 95.08-65.1 77.01-83.159-5.18-5.16-72.79 32.509-48.87-4.281 20.02-30.781 82.89-94.16 102.64-113.969 1.52-1.5 6.87.528 6.87.528s7.82 1.351 22.99 15.222c10.18 9.328 19.42 34.489 19.32 55.168zm-.59 310.071c22.81-31.39 53.85-22.87 64.85-50.24 38.41-68.87 46.5-219.831 122.54-216.901 9.82 73.301-90.92 158.051-97.08 230.971-2.87 33.72 18.5 49.17 7.95 76.35-8 29.88-25.04 64.81-62.57 66.82 14.06-9.14 31.5-31.5 44.39-72.91-53.22 28.24-69.96 55.64-68.32 69.18-29.24-15.71-34.77-66.46-11.76-103.27zm200.35-359.29c0 3.032.55 5.219 1.25 8.168.96 4.063 1.96 8.161 2.95 12.243 1.49 5.98 1.51 11.699 1.53 17.8 0 .661-2.19 1.969-5.65 3.528.61-5.489-.35-10.879-3.71-9.61-2.75 1.063-6.13 8.582-6.37 13.539-2.81.93-5.82 1.891-8.94 2.793.55-5.453-.43-10.679-3.75-9.453-2.48.953-5.41 7.094-6.17 11.91-3.21.68-6.29 1.192-9.12 1.481 1.58-6.399 1.05-14.938-3.05-13.391-2.74 1.051-6.04 8.321-6.37 13.282-2.11-.469-3.69-1.29-4.43-2.622-2.91-5.16-11.7-26.757-13.62-32.378-.29-.961-.09-1.641-1.09-1.641 0 0 3.16-3.32 1.06-2.91-9.16 1.769-5.49-9.59-5.49-9.59 16.46-21.957 60.04-16.777 69.18-14.981 2.73.543 3.22 6.872 1.52 9.204.1.839.27 1.679.27 2.628zm1085.06 863.22c.41-2.64.86-4.87 1.84-7.29v-4.96c.99-13.03 15.92-18.45 25.51-20.49 9.78-1.17 18.08-.99 27.3 3.55 7.52 3.75 20.35 10.88 25.68 19.32 7.82 12.35 3.44 35.74-7.07 44.76-16.19 13.88-46.19 9.48-61.32-4.29-8.29-7.54-14.05-17.51-11.94-30.6zm83.19 43.59c13.69-11.31 19.37-40.63 9.21-56.07-6.97-10.56-23.65-19.54-33.41-24.18-12.03-5.69-22.87-5.94-35.63-4.46-12.44 2.53-31.91 9.37-33.14 25.65v6.23c-1.33 3-1.88 5.83-2.44 9.15-2.74 16.36 4.76 28.85 15.56 38.32 19.71 17.25 58.75 22.77 79.85 5.36zm-41.88 50.08c-1.72 4.76-13.08 15.18-37.21 21.33 5.86-12 5.86-30.43 13.85-49.31-14.8 17.09-32.4 34.28-54.86 22.77 8.32-4.96 12.71-21.47 23.01-33.7-33.36 13.22-66.8 25.86-73.46 18.4 19.67-13.24 39.43-40.73 63.63-55.08-17.32-3.01-33.81-14.25-43.88-45.66 5.84 9.5 19.84 2.31 36.23 3.77-30.16-24.69-43.73-49.75-39.97-58.11 7.82 7.27 44.05 21.9 75.59 39.06-7.25-20.3-13.61-44.16-6.78-49.92.94 6.67 35.06 23.1 46.68 40.65 2.42-19.72 4.71-44.71 31.37-43.77-4.18 6.38 2.03 25.5-4.3 41.95 18.21-21.33 49.59-44.41 77.03-34.43-13.82 3.17-35.03 41.97-54.88 62.67 20.39-15.19 46.54-35.17 64.67-7.41-8.24 1.39-29.24 20.58-50.2 28.93 16.66 8.93 28.7 29.01 26 49.22-6.44-5.39-20.59-3.12-33.5-6.95 5.69 7.13 11.04 15.67 14.46 26.48 3.49 15.44 3.83 14.71 4.08 32.62-5.29-16.81-26.97-23.73-41.07-37.08 9.86 27.29 18.65 61.39.82 94.76-2.02-12.72-23.34-47.26-31.88-79.68-.51 5.95-2.01 12.15-5.43 18.49zm87.97-557.97c-22.87-8.57-17.4-22.61-23.22-30.7-44.79-62.17-159.46 10.02-170.39 6.92-4.81-1.38 30.35-19.58 30.45-37.71.07-20.05 19.68-26.93 21.62-34.63-3.64-13.81 13.67-29.36 38.12-32.04 15-1.6 7.17-5.58 7.17-5.58-9.2-2.95-2.32.78-16.84-4.4-1.23-18.16 42.8-10.74 18.11-71.21-.18-1.01-25.45-60.8-30.49-78.98 1.27-3.83 67.4 77.24 106.9 157.95 3.26 6.7 30.27 77.03 34.43 100.12-1.17.5-16.08 17.16-.41 34.11 3.85 4.19-3.15.77-15.45-3.85zM4048.7 1795.34l1.9 9.96 2.22 56.07-26.03-9.99-6.64-55.51zm63.58 9.75 1.89 10.18 2.27 57.19-26.06-10.18-6.66-56.66zm213 110.32c3.36 5-96.09 19.81-217.85 11.97-10.12-.65-99.33-15.15-128.71-27.88.47-3.06 22.38-160.04 26.11-67.41 1.78 43.62 2.31 44.8 2.8 44.09 73.84 28.75 130.64 48.16 167.54 52.69 1.19.15 77.73-38.37 103.32-73.61 1.29.6-31.84 51.39 46.79 60.15zm295.16-265.47c-43.77 48.22-115.65 70.28-194.69 81.13.28.07.49.07.78.19.14 3.9-.72 7.8-.82 11.74-.21 7.68 1.41 15.03 1.37 22.66-.02 8.14.7 15.55 1.93 23.61.45 2.89 3.62 4.99 5.51 7.01 2.7 2.88 1.95-.41 4.63-3.28 1.68-1.87 8.03.8 10.06-1.13 4-3.75 11.11-2.98 15.68-2.64 9.77.76 28.11 7.22 26.02 21.54-1.04 6.96 2.03 5.97-.67 11.29 5.49 2.07 5.16 4.21 10.86 6.07 7.02 2.25 14.34 8.69 16.08 17.48 1.35 6.71-.67 13.52-4.77 18.36-2.85 3.37 3.95 3.46 1.94 7.44 2.96 3.73-1.86 3.3 1.52 6.91 3.69 3.9.39 10.18-2.93 13.48-8.97 8.97-22.4 13-33.75 13.5 1.64 4.29 6.99 2.16 7.68 8.55.58 5.32-3.29 8.11-7.27 9.2-5.55 1.48-16.48.02-22.07-1.82-2.72-.91-4.79-2.84-7.72-2.98 5.84 3.35.86 10.59-2.89 13.27-6.73 4.81-17.69 2.33-24.39-1.06-9.79-4.98-35.82-1.89-35.49-16.37.12-2.34 2.25-4.56-2.93-3.87-5.31.71-6.7-1.21-10.37-5.65-4.94-5.89-12.62-12.98-9.63-21.1 1.23-3.3.26-3.13-1.09-7.05-9.63 1.63-19.73-3.43-16.43-20.82 1.56-8.38 5.02-18.57 12.05-19.27.39-.81-.82-1.1-1.09-1.96-3.79-1.6.74.54-3.15-1.92-4.47-2.83-5.19-7.81-4.14-13.67 2.43-13.33 17.66-22.79 28.01-24.24 3.77-.5 10.2-4.38 13.17-.43l1.71.56c.84.4 2.04.26 2.89 0 1.88-9.37 2.5-20.83-.05-29.66-2.17-7.44-3.83-14.01-7.7-20.56-1.89-3.23-4.28-5.77-6.37-8.47-50.64 4.5-102.65 5.68-150.86 7.13l.81 3.65 2.53 65.99-33.12 3.02-11.15-71.23c-57 2.41-105.75 6.94-136.25 20.66 109.2-83.86 480.6-243.93 429.74-127.07-29.37 67.45 79.1 47.35 136.82 11.81zm70.55 562.09c37.97-28.06 63.34 2.74 25.35 30.81-39.22 38.25-63.3-2.72-25.35-30.81zm-77.46-17.79c7.53 10.18 30.44 12.72 23.45 3.27 8.21-17.71-42.44-23.92-.78-44.05 2.36 36.95 51.02 34.38 64.26 4.91 7.66-17.06-14.3-73.17-33.56-52.26-13.28 14.44 40.84 30.02 9.48 53.23-29.16 21.57-18.46-28.13-36.59-29.99-5.97-4.46-29.78 23.03-33.71 26.57-17.38 15.56-5.6 20.65 7.45 38.32zm-148.89-204.57-11.84 52.96 8.85 23.55 58.36 62.7 114.88-84.53 7.05-33.68 159.44 184.22-46.96 36.83c5.28-12.13 5.34-25.16-3.2-36.69l-5.06-3.51c-31.7-42.86-124.96 28.16-85.72 70.68 9 9.79 21.15 13.18 33.81 12.08l-70.98 42.22-220.55-285.25zm118.24-46.75c-3.69 13.46-7.38 26.9-11.07 40.34-11.55-22.81-21.82-7.21-3.36 15.66 18.79 23.32 29.12-50.46 32.24-61.84 12.23 6.74 8.3-.82 13.64-6.34 1.97-7.11-35.14-12.17-41.9-3.22-1.25 4.6 14.49.79 10.45 15.4zm67.21 15.63c1.72 35.46-25.67 65.59-61.13 67.3-35.45 1.71-65.61-25.66-67.27-61.12-1.74-35.48 25.64-65.62 61.11-67.3 35.47-1.72 65.59 25.64 67.29 61.12zm-530.2-1211.28c2.97 16.769 5.9 33.55 8.87 50.332 47.64 1.847 35.27-68.34-8.87-50.332zm-180.11 110.062c1.01-.383 1.93-.711 2.75-.98-14.53-211.332-60.61-122.75-2.75.98zm-16.65 28.449c-27.12-36.679-48.45-148.57-19.16-178.301-21.62.86-64.86 34.418-59.53-5.531 98.81-42.687 163.85-64.121 304.71-76.301-6.21 43.34-73.89 30.192-64.18 62.911 26.06 34.902 85.76 18.921 98.93 73.382-5.59 101.598-148.69 101.207-260.77 123.84zm62.99 214.069c54.44 7.09-1.62-190.299 91.06-189.338.15 27.359-12.31 224.388-91.06 189.338zm175.94-102.229c9.69-61.621-99.39-52.832-42.95-124.43 6.76 44.84 119.26 59.719 42.95 124.43zm-105.86-98.199C3860.03 955 3986.81 1239.12 3848.92 1258.1c23.8-44.65-34.69-368.1 207.28-358.678Zm44.08 1435.808c18.97 13.65-27.3-54.64-31.05-65.39-30.37-87.08-58.6-85.57-61.76-104.44-3.59-21.71 3.36-15.23 24.94-18.44 21.6-3.22 31.33-.12 24.46-16.56-5-11.94-3.21-9.22-3.81-25.38l54.65-1.61c-8.62-2.45-34.34-10.2-55.84-15.5-.3-3.2-.63-6.67-1.06-10.66-3.53-32.77 28.87-7.71 9.1-52.39-21.27-48.09 100.61-29.57 100.61-29.57l.13-8.41-.82-18.31c19.09 10.22 28.62 5.63 56.9 4.98 82.46-1.96 129-14.69 129-14.69s-28.12 152.62 16.1 154.85c44.23 2.23 73.67 84.45 73.67 84.45l-76.58-13.81s-3.3 21.2-36.12-19.36c-32.28-39.84-91.66-57.63-91.66-57.63s28.65 42.53 34.49 87.6c-.56-4.36-144.19-9.7-89.86 106.11 20.8 44.42 46.47 51.87 46.47 51.87l-56.51-4.31 130.96 64.18-104.47 3.93-52.15-7.95s-125.7-135.4-39.79-73.56zm153.93-4.31c48.5 15.33 190.76 10.99 192.67 54.26-85.46 23.95-190.76-11.01-192.67-54.26zm37.83-61.21c37.15 10.04 152.93-13.85 167.83 51.77-21.58-22.31-165.97-24.62-167.83-51.77zm-537.89-221.37c13.79-122.23 147.87-163.69 186.39-206.02-52.64 144.59-133.13 89.97-148.48 252.67-.62 6.67-3.32 70.61 16.09 129.36-53.26-80.19-59.02-131.55-54-176.01zm167.05 10.32c-5.1-1.18-15.37-9.64-19.9-7-1.62.97-3.34 2.68-5.18 2.8-.84-8.99 7.85-12.65 11.35-13.85 6.62-2.32 15-14.13 21.93-15.12 4.09-10.19 13.56-7.08 17.21-6.4 6.21 1.95 42.66 43.57 48.38 48.86l-52.79-17.31c-8.38-5.84-12.03 10.14-21 8.02zm-45.37 142.68c-16.11-6.35-25.37-21.02-20.76-32.77 4.61-11.74 10.51-10.56 26.58-4.22 16.09 6.35 48.73 3.24 44.06 14.97-4.61 11.75-33.79 28.35-49.88 22.02zm56.72 101.5c35.45-11.62-50.18-61.04-51.17-60.89 125.97-20.41 153.34 52.44 163 77.56 9.11 23.7 41.18 86.75 41.18 86.75s-134.57-21.54-200.26-48.69c-130.35-53.88-139.2-182.15-139.2-182.15s80.41 162.14 186.45 127.42zm7.87-217.33s23.46-9.17 26.21 26.19l-52.69 5.03zm627.97 260.03c-22.36 10.32-37.15 12.37-37.15 12.37l-35.72-133.2 110.66 102.28s-15.45 8.24-37.79 18.55zm-250.35-1082.68c-104.08 72.5-176.72 88.71-251.82 55.8 41.02-59.67 60.7 4.77 99.02-39.17-59.61-78.23-156.58 60.88-224.76 32.6 23.51-29.31 47.54-51.69 71.76-69.26-8.32 4.43-16.43 9.32-24.14 13.68-4.83 2.74-30.98 18.35-34.32 11.19 11.62-13.41 22.21-23.34 36.17-33.74 8.15-6.07 16.66-13.21 25.41-17.87 9.63-5.13 14.96-5.48 24.45-8.21 11.08-3.2 30.88-5.39 46.33-5.47 77.44-30.94 153.77-33.01 219.2-71-36.78 66.25 122.35 41.42 12.7 131.45zm-434.73 96.79c-33.55 69.5-74.47 9.39-108.96 62.43 92.77 64.65 172.59-97.69 262.4-85.22-23.03 39.17-46.21 68.78-69.53 92.05 1.34-.79 2.71-1.61 4.04-2.37 5.57-3.16 35.49-21.22 40.61-14.07-12.49 14.68-24.15 25.69-39.89 37.42-9.18 6.87-18.67 14.89-28.77 20.33-11.15 5.99-17.63 6.74-28.86 10.26-9.07 2.83-16.31 4.55-22.89 5.34-60.38 33.79-121.57 48.2-183.54 96.33-13.83-12.35-26.09-26.14-34-32.72-2.15-1.75-53.05-41.42-55.12-43.13-9.43-7.77-18.34-6.81 12.23-26.74-3.46-34.21 35.05-21.85 45.05-34.8 4.26-5.52-1.71-3.01 3.42-7.21 87.09-71.01 118.01-96.21 203.81-77.9zm-344.61 578.94c-.16.43-10.99-94.75-10.99-94.75l-34.67-136.8 115.19-188.55 116.06 89.93s-99.67 107.26-149.77 209.38c-29.67 60.52-35.82 120.79-35.82 120.79zm-60.57-291.16s61.86-177.33 70.1-171.84c8.26 5.5 34.38 26.8 34.38 26.8L3482.26 1666Zm1192.56-134.72s70.59 145.13 125.45 138.55c45.18-5.43-156.4 74.56-156.4 74.56l8.96-21.02s14.22-9.63 17.11-15.52c2.91-5.88-15.08-39.48-15.08-39.48s-71.91-109.43-77.03-111.6c-5.1-2.17-10.58-7.85-15.99-4.76-5.42 3.1-15 8.56-15 8.56s-19.42-10.76 26.64-29.15c17.73-7.08 90.37-47.22 111.93-66.58 21.58-19.34 8.2 14.4 8.2 14.4s-17.89 14.54-26.85 24.69c-1.35 1.43-1.74 2.82-.76 4.5 3.82 6.36 8.82 22.85 8.82 22.85zm.65 310.94c0 19.86-16.12 35.98-35.98 35.98-19.86 0-35.98-16.12-35.98-35.98 0-19.88 16.12-35.97 35.98-35.97 19.86 0 35.98 16.09 35.98 35.97zm36.83-66.7c0-28.86 23.38-52.24 52.25-52.24 28.83 0 52.23 23.38 52.23 52.24 0 28.83-23.4 52.23-52.23 52.23-28.87 0-52.25-23.4-52.25-52.23zm-181.5-627.16c-38.5 21.13-229.32 127.85-35-52.09 56.87-74.18 62.68 20.62 172.91-66.21-27.95 56.6-114.82 105.62-137.91 118.3zm61.52-236.739c-106.42-87.442-15.54-147.602 0 0zm-95.48-19.281c41.34 86.351-97.35 119.242-92.15 30.39 15.48-43.922 58.98-54.711 92.15-30.39zm20.78 139.36c-52 12.79-98.54 131.83-155.92 41.95 6.44-32.05 60.82-45.16 14.39-70.76 69.12-12.109 165.63-17.949 156.14-103.359 30-24.16 40.21 49.199 82.55 16.801 4.59-60.821-31.09-95.082-72.75-125.34-16.35 1.019-22.79 16.976-40.21 16.387-.4 28.461 45.68 42.171 11.6 63.769-79.07-26.93-121.66 1.274-127.76 84.551-43.12-.617-56.34-3.09-110.91 1.992-32.06-85.082 64.29-93.902 108.94-112.949 112.25-346.793 488.24 196.638 133.93 186.958zm-143.95-17.028c-112.3 34.568-179.61 166.008-318.32 141.558 103.18-72.93 186.04-130.72 290.16-184.14 3.14 18.339 12.54 32.519 28.16 42.582zM3484.09 1271.6c-6.87-12.47-22.58-17-35.06-10.11-12.5 6.84-17.01 22.57-10.13 35.05 6.87 12.47 22.57 17.02 35.07 10.13 12.45-6.88 17-22.58 10.12-35.07zm85.47-24.15s6.8 6 7.77 15.02c0 0 4.93 44.49-9.61 86.16-10.19 29.24-36.36 69.38-36.36 69.38s-4.98 7.61-13.93 8.95c0 0-33.83 5.08-60.15-19.21-28.23-26.05-101.2-28.06-101.2-28.06s-9.06-.24-10.33-9.23c0 0-6.56-46.88 3.58-90.22 11.62-49.6 27.73-75.27 27.73-75.27s4.82-7.67 13.89-7.58c0 0 67.61.81 100.31 7.84 40.51 8.67 78.3 42.22 78.3 42.22zm-217.44 248.4 14.86-10.32 4.06-28.04-13.43-15.49 12.01-41.11 92.26 24.6s-44.94 163.14-61.6 215.78c-8.71 27.55-27.24 14.45-35.91 3.69-6.04-7.44-.34-18.66-3.58-24.55-7.66-13.93-13.57-17.17-13.57-17.17l4.18-26.19-14.81-21.2.74-14.78 17.64-22.39zm79.12 185.07c1.76 4.99 2.48 44.68 3.63 64.2.39 6.06 2.01 25.93 1.98 26.34 3.63-1.35 28.14 7.68 33.28 14.37 4.06 5.36 9.57 16.18 10.41 22.72 2.46 19.2 1.68 34.72-10.9 50.02-7.21 8.77-13.77 13.3-24.73 14.89-7.56 1.12-10.7 1.6-18.34.96-6.25-.51-29.49-2.39-40.17-17.7-9.42-13.5-9.71-18.83-8.75-32.59.97-14.27 10.21-27.92 15.54-35.12l.1-1.44c-.06-2.27-.82-4.32-2.3-6.17-4.2-9.72-9.14-19.81-14.03-29.15-6.74-12.9-14.53-26.36-22.71-38.42-2.01-2.94-3.77-4.03-4.4-6.94 3.68 3.45 49.3-15.75 81.39-25.97zm35.2 246.69 37.05-44.41s15.64 32.94 4.92 59.21c-25.67 62.89 72.36 212.88 72.36 212.88s-95.64-93.54-133.49-171.59c-19.67-40.58 19.16-56.09 19.16-56.09zm1514.29-622.06c-19.92 11.44-47.54 20.59-67.24 36.65l-3.73 2.67-3.68 2.73c-14.45-10.14-32.67-16.18-46.03-26.8 12.91-7.51 26.52-17.02 41.15-20.46 25.92-6.06 53.97-1.69 79.53 5.21zm11.53 51.45c-5.73 9.45-10.24 20.16-17.04 28.7-15.99-10.21-41.97-17.91-51.19-31.46 25.28-17.6 53.13-32.54 83.44-39.65 14.43 7.83-13.14 29.47-15.21 42.41zm-105.71 6.99c-14.84 12.74-25.27 31.18-37.46 45.3-17.07-10.92-39.98-20.65-56.56-31.9 8.4-11.37 21.84-32.27 33.53-42.02 5.82-4.82 12.31-.49 18.97-1.81 11.6 10.36 45.21 15.94 41.52 30.43zm146.35-35.65c11.8 23.22 12.83 51.68 13.61 77.66-.99 5.15.92 15.2-2.54 18.2-15.41-11.53-41.36-17.51-51.07-31.01 13.91-20.02 23.42-52.7 40-64.85zm-125.25 40.1c17.59 12.43 48.41 20.3 57.46 36.62-10.41 16.32-18.17 36.95-29.96 50.99-20.26-14.94-56.98-23.24-66.62-42.52 10.43-17.02 23.63-32.44 39.12-45.09zm199.59 91.14c-13.48-12.52-43.58-15.45-45.71-34.16 1.45-25.81-.72-51.71-5.76-77.05 16.86 10.75 28.2 31.47 37.76 49.43 8.65 19.15 16.17 41.54 14.76 61.9zm-266.76-31.92c-10.76 17.74-14.38 39.3-20.86 58.25-14.65-11.95-41.06-22.52-49.12-38.83-4.44-10.2-3.32-5.99 2.01-25 2.79-9.99 6.87-19.09 12.34-28.01 13.91 20.62 45.94 19.41 55.63 33.59zm201.91 16.99c-3.24 21.21-8.4 42.57-19.22 61.3-20.37-21.85-56.75-15.75-68.8-43.26 9.92-17.07 18.92-34.72 29.51-51.43 19.78 10.57 39.59 21.69 58.51 33.39zm-114.68 28.29c-10.45 17.96-19.34 37.86-31.02 54.83l-.84.18c-17.25-14.62-52.31-19.81-57.13-41.24 4.57-18.27 8.34-37.33 18.63-53.45 20.73 28.26 47.25 25.89 70.36 39.68zm112.85 38.01c10.11-17.42 12.32-42.69 21.4-57.31 15.63 8.83 31.84 16.7 47.25 25.97-.57 22.38-6.37 44.94-17.29 64.44h-.78c-14.96-12.06-44.12-18.44-50.58-33.1zm-68.09 59.82c-16.93-13.55-48.44-19.83-56.91-37.12 10.84-15.51 18.08-41.12 31.5-50.16 21.58 29.5 44.81 24.73 66.88 37.3-8.09 19.74-25.4 36.16-41.47 49.98zm-153.12-17.02c-.49 12.3 3.69 38.4 1.87 48.82-30.25-29.03-57.69-53.94-55.94-127.37 15.69 5.73 36.49 21.83 52.01 29.39 4.54 13.68-.82 33.22 2.06 49.16zm223.94 57.53-4.8-3.98c-12.48-11.32-43.27-16.79-46.12-30.08 16.55-11.77 26.53-36.54 40.37-46.17 17.41 8.77 34.38 18.4 51.33 27.93-11.27 19.11-22.09 35.91-40.78 52.3zm-209.71-69.01c-.62-12.95-2.44-38.45 15.26-20.99 14 11.08 52.77 16.19 31.15 38.47-9.86 17.3-20.64 38.15-31.07 55.13-17.27-16.33-11.88-49.87-15.34-72.61zm55.02 39.05c7.99-14.96 15.49-37.71 33.17-19.09 12.24 9.1 52.24 18.77 21.7 31.04-21.51 14.09-45.14 25.11-70.02 31.73-16.04-9.38 13.34-29.99 15.15-43.68zm12.76 49.48c26.25-8.28 50.13-23.03 72.3-39.21 14.05 8.11 46.13 20.25 51.17 31.95-24.53 11.26-53.79 19.42-81.09 18.91-11.8-1.34-38.42-3.75-42.38-11.65zm-552.25-886.788c-77.26 35.347-82.09 36.207-141.01 69.386 1.83-101.226 7.73-96.089 13.96-178.566 78.65 97.789 66.25-37.453 155.78 3.688-55.7 42.07-82.03 53.121-28.73 105.492zm509.4 1339.968c6.75-65.9-91.08 36.74 0 0zm-123.58-197.26c70.98-20.98 232.78 3.24 246.9 73.4 8.57 42.48-48.15 73.63-81.57 87.65 26.33 35.71-32.3 85.73-66.36 85.71-105.02-1.83-122.46-164.41-98.97-246.76M3410.77 188.602h71.31c-1.74-3.75-3.75-7.493-6.04-12.372l-70.13-152.949V5.738h96.58V24.16h-75.9c2.03 3.711 4.03 8.05 6.04 12.352l69.86 152.937v17.539h-91.72zm224.26-122.493c0-29.02-10.35-44.84-31.62-44.84-21.56 0-33.07 16.09-33.07 45.122v140.597h-19.84V65.84c0-40.25 18.96-63.258 52.05-63.258 33.34 0 52.62 23.297 52.62 63.527v140.879h-20.14zm121.03 53.77c-26.15 18.402-31.34 29.891-31.34 46 0 12.66 7.5 25.59 23.55 25.59 14.69 0 22.46-8.91 30.51-24.731l17.25 9.774c-9.77 20.699-22.15 33.629-46.86 33.629-27.01 0-44.57-19.532-44.57-45.692 0-26.437 10.33-41.109 38.81-61.25 26.46-18.687 34.78-34.488 34.78-54.039 0-16.68-10.64-27.89-27.87-27.89-14.67 0-23.86 10.062-31.62 29.609l-18.42-8.34c8.64-25 24.14-39.957 49.44-39.957 30.21 0 48.59 20.43 48.59 48.887 0 27.87-11.78 47.441-42.25 68.41zm115-43.117 11.22 50.019c4.31 18.688 8.88 40.25 10.93 55.188 2.29-14.938 6.6-35.93 10.9-54.899l11.23-50.308zm11.8 130.226-47.73-201.25h19.82l12.07 52.352h52.62l11.78-52.352h20.43l-47.74 201.25Zm188.85-105.797c-4.86-17.543-9.45-34.222-11.19-47.73-1.43 13.508-5.76 30.187-10.65 47.73l-30.47 105.797h-22.12V5.738h18.67v120.473c0 11.508-.28 26.738-.28 35.348 2.29-12.34 5.45-24.719 9.77-39.957L4060.52 0l35.08 121.602c4.29 15.238 8.02 27.886 10.07 39.957 0-8.61-.31-25.02-.31-35.348V5.738h18.67v201.25h-21.85zm181.41 0c-4.87-17.543-9.48-34.222-11.2-47.73-1.44 13.508-5.76 30.187-10.66 47.73l-30.45 105.797h-22.15V5.738h18.69v120.473c0 11.508-.27 26.738-.27 35.348 2.3-12.34 5.43-24.719 9.77-39.957L4241.92 0 4277 121.602c4.3 15.238 8.03 27.886 10.06 39.957 0-8.61-.29-25.02-.29-35.348V5.738h18.67v201.25h-21.84zm127.09 2.579h41.38v18.992h-41.38v65.539h65.82v18.687h-85.94V5.738h89.39V24.45h-69.27zm200.95-12.34c0-12.09.28-31.64.57-39.121-4.61 11.21-13.22 31.34-20.98 49.472l-45.7 105.207h-19.55V5.738h18.94v120.75c0 12.071-.27 31.34-.27 39.102 4.88-12.641 13.54-32.781 20.68-49.461l48.32-110.39h16.96v201.249h-18.97zm79.92-58.668c-8.34 0-14.68-6.883-14.68-15.223s6.34-14.957 14.68-14.957c8.62 0 14.67 6.617 14.67 14.957s-6.05 15.223-14.67 15.223zm215.02 56.636c-1.99-13.789-4.29-35.058-5.45-46.57-1.15 11.512-4.59 33.07-6.89 46.57l-20.7 117.59h-16.96l-20.41-117.59c-2.3-13.5-6.05-35.058-7.2-46.57-.86 11.512-3.46 32.781-5.45 46.57l-16.12 117.59h-19.25l30.76-201.25h18.1l18.11 99.184c3.16 16.976 7.77 46.879 9.51 65.258 1.72-18.379 6.31-47.989 9.47-65.258l18.13-99.184h18.67l31.05 201.25h-19.25zm81.08-83.66h20.11v201.25h-20.11zM5079.64 115h-26.13v73.301h27.3c20.41 0 32.19-12.653 32.19-36.211 0-24.16-11.49-37.09-33.36-37.09zm53.48 38.219c0 36.511-22.41 53.769-51.45 53.769h-48.3V5.738h20.14v91.14c3.71 0 25.27 0 27.87.27l30.17-91.41h22.15l-31.62 96.313c18.69 7.758 31.04 24.73 31.04 51.168zm146.32 53.769h-21.54l-34.53-59.207c-6.88-12.09-16.66-29.609-22.11-39.672 0 6.891.29 24.141.29 32.461v66.418h-20.11V5.738h20.11v74.184l19.55 31.617 41.1-105.8h21.85l-49.16 125.941Zm68.17-103.218h41.38v18.992h-41.38v65.539h65.82v18.687h-85.96V5.738h89.41V24.45h-69.27zm200.95-12.34c0-12.09.28-31.64.55-39.121-4.59 11.21-13.2 31.34-20.99 49.472l-45.69 105.207h-19.57V5.738h18.99v120.75c0 12.071-.28 31.34-.28 39.102 4.89-12.641 13.5-32.781 20.69-49.461l48.3-110.39h16.97v201.249h-18.97zm79.93-58.668c-8.36 0-14.69-6.883-14.69-15.223s6.33-14.957 14.69-14.957c8.61 0 14.64 6.617 14.64 14.957s-6.03 15.223-14.64 15.223" style="fill:#000;fill-opacity:1;fill-rule:nonzero;stroke:none" transform="matrix(.13333 0 0 -.13333 0 322.227)"/>
</svg>
